<svg xmlns="http://www.w3.org/2000/svg" width="14" height="14" viewBox="0 0 14 14" fill="black">
  <path d="M6.87812 9.73125C6.76146 9.73125 6.64858 9.70937 6.5395 9.66562C6.42983 9.62187 6.33854 9.56354 6.26562 9.49062L2.24062 5.46563C2.08021 5.30521 2 5.10104 2 4.85312C2 4.60521 2.08021 4.40104 2.24062 4.24062C2.40104 4.08021 2.60521 4 2.85312 4C3.10104 4 3.30521 4.08021 3.46563 4.24062L6.87812 7.65313L10.2906 4.24062C10.451 4.08021 10.6552 4 10.9031 4C11.151 4 11.3552 4.08021 11.5156 4.24062C11.676 4.40104 11.7563 4.60521 11.7563 4.85312C11.7563 5.10104 11.676 5.30521 11.5156 5.46563L7.49062 9.49062C7.40312 9.57812 7.30833 9.63996 7.20625 9.67612C7.10417 9.71287 6.99479 9.73125 6.87812 9.73125Z" fill="#1C2A37"/>
</svg>